<svg width="77" height="32" viewBox="0 0 77 32" fill="none" xmlns="http://www.w3.org/2000/svg">
<path fill-rule="evenodd" clip-rule="evenodd" d="M64.115 11.3258C63.8049 11.0028 63.347 10.8782 62.7602 10.8794H60.5338V23.6858H64.513V23.6096H64.5883V12.933C64.5883 12.6202 64.5494 12.3419 64.4633 12.0956C64.4087 11.7973 64.3081 11.5347 64.115 11.3258ZM58.8288 7.94306C58.5086 7.62773 58.0544 7.53826 57.4753 7.53672H54.0471V9.57583H54.123V9.86894H54.6741C55.0314 9.86493 55.1847 9.92479 55.2227 9.97199L55.243 9.99945C55.248 10.0639 55.2511 10.1374 55.2511 10.2244L55.2514 23.6858H58.9597V23.6096H59.0346V23.409H59.2361V23.3332H59.3111V9.59157C59.3111 9.25279 59.2731 8.96308 59.1837 8.7107C59.1306 8.40524 59.0278 8.14453 58.8288 7.94306ZM53.9549 10.8794H51.7294C51.1808 10.8782 50.7267 11.0037 50.4104 11.32C50.0973 11.6384 49.9726 12.0941 49.9726 12.6424V23.6858H53.9549V23.6096H54.0289V11.1703H53.9549V10.8794ZM64.9437 24.2881C63.0413 26.1917 60.374 27.325 57.2717 27.329C51.1173 27.3197 46.7139 22.7374 46.7049 16.4667C46.7092 13.2943 47.8027 10.5906 49.6579 8.67151C51.5261 6.78235 54.1434 5.67532 57.1961 5.67069C63.4538 5.68087 67.9353 10.1744 67.9476 16.541C67.9433 19.6579 66.8292 22.3594 64.9437 24.2881ZM66.9406 6.81752C69.3576 9.21515 70.7997 12.5884 70.7988 16.4667C70.7994 20.2956 69.3576 23.6651 66.9538 26.0717L66.9109 26.1131L66.8776 26.1479C64.4757 28.5551 61.1142 30 57.2929 30H57.2886C53.4205 30.0015 50.0559 28.5567 47.6623 26.1479C45.2705 23.7392 43.85 20.3681 43.8516 16.541C43.85 12.6643 45.2696 9.29321 47.6521 6.89373L47.6947 6.85485L47.7259 6.81906C50.1071 4.41957 53.4517 3 57.2717 3C61.1398 3 64.5266 4.41958 66.9406 6.81752Z" fill="#0456A2"/>
<path fill-rule="evenodd" clip-rule="evenodd" d="M38.3516 3.01562V29.7833H39.6675V3.01562H38.3516Z" fill="#0456A2"/>
<path d="M28.21 16.1778C31.0674 15.4685 33.7226 13.1557 33.7226 10.029C33.7235 3.76722 26.8312 3.11991 22.8723 3.01562L7 3.01624V29.7833H10.2387H12.6073V8.51343H29.1365L27.2952 12.1468C27.2952 12.1468 26.9253 12.9619 25.6643 12.9128L19.6349 12.9119C19.6349 12.9119 17.6386 13.0011 17.5368 15.4993V21.5864C17.5368 21.5864 17.7056 19.3764 19.5506 19.2027L27.6315 19.203L25.8836 22.6669C25.8836 22.6669 25.5078 23.5959 24.3576 23.6073L19.5247 23.6079C19.5247 23.6079 17.8521 23.6647 17.5273 25.8877V29.7784L22.8868 29.7833C26.8509 29.6071 33.7217 29.1236 33.7217 22.562C33.7217 19.5538 31.8341 17.2793 28.21 16.1778Z" fill="#0456A2"/>
</svg>
