<svg version="1.1" id="Layer_1" xmlns="http://www.w3.org/2000/svg" xmlns:xlink="http://www.w3.org/1999/xlink" x="0px" y="0px"
	 width="100%" viewBox="0 0 931 203" enable-background="new 0 0 931 203" xml:space="preserve">
<path fill="#FEFEFE" opacity="1.000000" stroke="none" 
	d="
M676.000000,204.000000 
	C450.716217,204.000000 225.932449,204.000000 1.074336,204.000000 
	C1.074336,136.397873 1.074336,68.795647 1.074336,1.096708 
	C311.333313,1.096708 621.666626,1.096708 931.971741,1.096708 
	C931.971741,68.734184 931.971741,136.367096 931.971741,204.000000 
	C846.795654,204.000000 761.647827,204.000000 676.000000,204.000000 
M477.026764,128.269562 
	C476.988037,127.468941 476.949341,126.668320 476.910614,125.867699 
	C476.452484,126.005836 475.994324,126.143982 475.536194,126.282120 
	C475.998627,127.213081 476.461090,128.144043 476.705566,129.639175 
	C477.995697,133.059769 479.164703,133.325104 482.814484,131.105453 
	C484.674255,131.298782 486.534027,131.492111 487.836487,131.627518 
	C487.836487,128.402908 487.966187,125.139343 487.806854,121.889954 
	C487.551910,116.690506 484.268768,115.033607 479.382599,117.503593 
	C484.815613,118.369301 484.815613,118.369301 484.217896,124.622993 
	C484.389343,124.797394 484.591644,124.921539 484.958496,125.717583 
	C484.175323,127.223251 483.392181,128.728912 481.800201,130.060135 
	C480.227203,129.680969 478.654175,129.301804 477.026764,128.269562 
M453.039520,130.646988 
	C454.815887,134.572128 457.022766,130.956284 459.868317,131.037216 
	C460.130585,126.870064 460.647949,122.689148 460.424377,118.548225 
	C460.383179,117.785660 457.340271,117.185173 455.682861,116.509880 
	C459.331665,119.608627 459.623779,120.608185 456.384705,122.998978 
	C456.046112,123.413895 455.707489,123.828812 455.368866,124.243713 
	C456.505249,124.508049 457.641632,124.772392 458.888428,125.877014 
	C458.603424,127.228554 458.318420,128.580093 457.320312,129.930374 
	C455.879791,129.953995 454.439301,129.977600 453.057281,129.223160 
	C452.372009,127.913498 451.686707,126.603844 451.001404,125.294205 
	C450.334106,126.109337 449.666809,126.924469 448.999481,127.739586 
	C450.168060,128.504013 451.332275,129.275284 452.512207,130.021820 
	C452.625153,130.093277 452.835876,130.010162 453.039520,130.646988 
M679.890198,117.548813 
	C674.998901,122.545105 675.448914,128.693420 679.728577,130.201828 
	C680.208923,126.388916 680.720581,122.327095 681.886780,118.162712 
	C682.185974,117.885109 682.485168,117.607513 682.784424,117.329926 
	C682.034241,117.302788 681.284119,117.275658 679.890198,117.548813 
M440.245209,130.928604 
	C438.615051,130.079773 435.654205,129.320602 435.589905,128.366302 
	C435.339172,124.644180 436.005920,120.860260 436.394379,116.372726 
	C435.007416,118.090538 432.519012,119.799171 432.323578,121.738838 
	C432.035919,124.593498 432.729187,128.058456 434.307037,130.377197 
	C435.114655,131.564056 438.752319,130.825150 441.740356,131.018616 
	C442.372742,131.019760 443.005157,131.020905 444.203735,131.624588 
	C444.824829,130.991364 445.969055,130.372086 445.986389,129.722794 
	C446.167908,122.914307 446.198456,116.100853 446.162262,109.289360 
	C446.159454,108.766212 445.334778,108.247437 444.030640,106.713066 
	C443.825592,110.936531 443.679016,113.955101 442.917999,116.847412 
	C441.854156,116.580505 440.790314,116.313599 439.726501,116.046684 
	C439.589935,116.401756 439.453369,116.756821 439.316803,117.111885 
	C440.457977,117.725998 441.599121,118.340103 442.945404,119.717232 
	C442.883392,122.808426 442.821411,125.899620 442.180450,129.083481 
	C441.802246,129.682587 441.424042,130.281708 440.245209,130.928604 
M705.637817,130.318466 
	C706.477966,130.734787 707.318176,131.151108 708.158325,131.567429 
	C707.879822,126.622787 707.601379,121.678146 707.322876,116.733505 
	C707.017761,116.805168 706.712585,116.876831 706.343201,116.963593 
	C705.925293,121.315491 705.506409,125.678284 704.203552,129.911621 
	C699.716309,131.331451 698.067139,129.222183 698.088379,125.008728 
	C698.102234,122.260834 698.091003,119.512817 698.091003,116.764854 
	C697.322144,116.754005 696.553223,116.743156 695.784363,116.732315 
	C695.784363,119.955559 695.463501,123.223755 695.906189,126.384979 
	C696.166443,128.242874 697.334412,131.070618 698.641846,131.421616 
	C700.492493,131.918442 702.848877,130.531219 705.637817,130.318466 
M498.841278,118.045090 
	C503.040405,118.169739 502.697235,121.289886 502.765106,124.074699 
	C502.828461,126.671974 502.778656,129.272003 502.778656,131.870819 
	C503.582428,131.854813 504.386230,131.838821 505.190002,131.822815 
	C505.190002,128.505829 505.264679,125.186752 505.171844,121.872360 
	C505.045258,117.353195 502.796814,115.876640 497.218658,117.182335 
	C495.895508,117.085236 494.572357,116.988129 493.410828,116.902885 
	C493.410828,122.044197 493.410828,126.950256 493.410828,131.856323 
	C493.897278,131.910233 494.383728,131.964142 494.870209,132.018051 
	C495.086060,130.542603 495.198486,129.042786 495.538879,127.596649 
	C496.296967,124.376129 497.169037,121.182457 498.841278,118.045090 
M554.421997,117.416656 
	C553.079651,117.225616 551.737244,117.034569 549.791748,116.757690 
	C551.190369,122.123146 548.956116,127.415520 551.766724,133.393539 
	C553.089905,127.234230 554.063232,122.703430 555.864014,118.133041 
	C558.862305,117.605370 560.257812,119.213135 560.467651,121.908958 
	C560.659546,124.375305 560.397217,126.875473 560.553894,129.346848 
	C560.613403,130.285004 561.283997,131.184418 561.676086,132.101486 
	C562.161560,131.984985 562.647034,131.868484 563.132507,131.751984 
	C563.132507,128.656403 563.185730,125.559708 563.120789,122.465485 
	C563.006042,116.992264 560.503479,115.391098 554.421997,117.416656 
M575.987610,125.771751 
	C575.572998,127.457954 575.158386,129.144165 574.764648,130.745453 
	C576.257263,131.149933 577.758362,131.556717 578.895691,131.864929 
	C578.895691,128.487900 579.001770,125.269882 578.872131,122.061386 
	C578.651306,116.596710 575.084412,114.810860 570.307129,117.677666 
	C575.799866,118.242119 577.128479,119.705780 575.087952,122.898994 
	C574.864746,123.248299 575.033936,123.848305 575.226440,124.631432 
	C575.402893,124.805000 575.609924,124.926620 575.987610,125.771751 
M626.924011,116.970436 
	C626.317993,117.034325 625.711975,117.098213 624.031555,117.275375 
	C625.604248,117.868843 626.170105,118.082344 626.922424,119.013474 
	C627.227051,120.196114 627.531616,121.378754 627.869019,122.688789 
	C624.920837,122.688789 622.494446,122.688789 619.173523,122.688789 
	C620.463623,120.468727 621.420837,118.821503 622.307495,117.295662 
	C618.303101,117.580162 616.308533,120.070000 616.604980,124.875175 
	C616.804810,128.113708 617.922485,130.635284 621.757019,131.302933 
	C620.743835,128.586823 619.993225,126.574623 619.018372,123.961395 
	C623.355408,123.961395 626.798279,123.961395 631.764832,123.961395 
	C629.944275,121.129974 628.714172,119.216888 626.924011,116.970436 
M717.048950,131.103745 
	C717.545349,131.151917 718.041809,131.200073 718.538208,131.248230 
	C718.038269,130.832108 717.538269,130.415985 716.785522,129.222595 
	C716.785522,125.358604 716.785522,121.494614 716.785522,117.567085 
	C716.221924,117.415535 714.818970,117.038261 713.164307,116.593315 
	C713.164307,124.608360 713.164307,132.295609 713.164307,139.982864 
	C713.589111,140.121811 714.013916,140.260742 714.438721,140.399689 
	C714.903320,139.291962 715.550293,138.222610 715.792969,137.068237 
	C716.243835,134.923767 716.458740,132.729721 717.048950,131.103745 
M70.587250,128.041718 
	C70.907936,128.132507 71.228622,128.223297 71.546776,129.205490 
	C71.546776,132.674255 71.546776,136.143036 71.546776,139.894531 
	C77.496071,139.894531 83.062988,139.894531 89.159454,139.894531 
	C89.159454,126.491959 89.159454,113.254295 89.159454,99.537292 
	C96.276886,99.537292 102.875160,99.537292 109.653061,99.537292 
	C109.653061,93.814850 109.653061,88.584358 109.653061,82.958885 
	C102.787476,82.958885 96.179413,82.958885 89.608528,82.958885 
	C89.284554,78.068153 89.283661,77.998962 93.408371,77.945885 
	C98.830017,77.876122 104.253235,77.928757 109.631546,77.928757 
	C109.631546,71.562897 109.631546,65.962975 109.631546,59.922363 
	C103.427017,59.922363 97.466721,59.864700 91.507935,59.934879 
	C80.544815,60.063992 72.733841,67.335693 71.638435,78.336456 
	C71.493591,79.791153 71.336655,81.244644 71.157738,82.963707 
	C56.917259,82.963707 42.933525,82.909958 28.950422,82.980659 
	C17.702848,83.037529 9.425298,90.810287 9.294343,101.261574 
	C9.162266,111.802414 17.658451,119.815681 29.145365,119.916321 
	C35.476627,119.971794 41.810768,119.844391 48.138885,119.996330 
	C49.478168,120.028488 50.796860,120.918312 52.125038,121.412971 
	C51.990059,122.082954 51.855083,122.752930 51.720108,123.422913 
	C37.696224,123.422913 23.672337,123.422913 9.661386,123.422913 
	C9.661386,129.431564 9.661386,134.542130 9.661386,140.077271 
	C23.883009,140.077271 37.844849,140.049881 51.806515,140.087280 
	C60.574352,140.110748 66.738335,136.263611 70.587250,128.041718 
M592.361877,65.945366 
	C591.049683,75.244957 589.737549,84.544540 588.366760,94.259491 
	C590.082275,94.092720 591.439819,93.960747 592.667664,93.841393 
	C593.290100,86.906136 593.870483,80.439606 594.450867,73.973068 
	C594.824219,73.955597 595.197571,73.938126 595.570862,73.920654 
	C598.964539,80.791161 602.358215,87.661667 606.476074,95.998383 
	C610.650146,87.565994 614.122437,80.551247 617.594727,73.536499 
	C617.944641,73.646927 618.294617,73.757362 618.644592,73.867790 
	C619.257812,80.567680 619.871094,87.267578 620.479431,93.914284 
	C623.259644,93.914284 625.672119,93.914284 628.298584,93.914284 
	C626.938782,82.729713 625.618713,71.872093 624.323975,61.222927 
	C620.893433,59.691830 619.557617,61.293415 618.352600,63.921940 
	C615.361572,70.446167 612.129211,76.859802 608.557129,84.217140 
	C604.960754,76.702003 601.781006,70.313675 598.850769,63.812851 
	C597.619446,61.081017 596.097595,59.855259 593.150330,61.184017 
	C592.945984,62.506367 592.742859,63.820847 592.361877,65.945366 
M460.633179,60.688114 
	C458.525574,60.688114 456.417999,60.688114 454.359009,60.688114 
	C454.359009,72.145531 454.359009,83.068687 454.359009,94.093025 
	C460.400635,94.093025 466.247894,94.531967 472.002808,93.990074 
	C480.615326,93.179100 486.226746,85.527161 486.067169,75.752464 
	C485.919800,66.724915 481.354767,61.784229 472.036224,60.888783 
	C468.573242,60.556007 465.064178,60.702942 460.633179,60.688114 
M218.091354,78.420357 
	C218.535614,85.458199 221.310913,91.162628 228.279037,93.562309 
	C235.889481,96.183182 243.458649,95.951057 249.948685,90.433624 
	C258.376648,83.268684 257.745087,68.957634 248.849670,63.036217 
	C239.060455,56.519810 218.942444,59.069771 218.091354,78.420357 
M779.350525,79.135368 
	C780.219666,78.199692 780.943176,77.036652 781.984497,76.369690 
	C785.550232,74.085762 786.696533,70.782684 785.928589,66.882515 
	C785.156677,62.962322 782.413818,60.879696 778.468933,60.766201 
	C773.399780,60.620365 768.323303,60.730736 763.431030,60.730736 
	C763.431030,72.271843 763.431030,83.180931 763.431030,94.099945 
	C766.052795,94.099945 768.364014,94.099945 771.256226,94.099945 
	C771.256226,89.380959 771.256226,84.772949 771.256226,78.949539 
	C773.518005,82.877602 775.480774,85.466644 776.587036,88.380852 
	C778.789185,94.181816 782.773438,95.329018 788.468628,93.719620 
	C785.520203,88.981987 782.641907,84.357147 779.350525,79.135368 
M212.551666,72.581223 
	C214.197327,64.286797 211.755096,60.959900 203.454926,60.566887 
	C199.182114,60.364571 194.891815,60.531361 190.494797,60.531361 
	C190.494797,71.957016 190.494797,82.844193 190.494797,93.963898 
	C193.067673,93.963898 195.453903,93.963898 198.229248,93.963898 
	C198.229248,89.104294 198.229248,84.445534 198.229248,78.654640 
	C200.537384,82.667107 202.675415,85.481323 203.866333,88.651329 
	C206.016876,94.375702 209.962006,95.069870 215.543518,93.732391 
	C212.222488,88.345741 209.072174,83.235962 206.207657,78.589760 
	C208.526917,76.512856 210.333679,74.894897 212.551666,72.581223 
M425.231720,75.274452 
	C430.246185,80.825356 435.163361,86.469704 440.342682,91.862244 
	C441.657440,93.231087 443.806458,93.798622 446.594910,95.276367 
	C446.594910,82.775818 446.594910,71.882866 446.594910,60.679741 
	C445.383545,60.797443 444.193726,60.913055 442.791870,61.049271 
	C442.791870,68.470825 442.791870,75.536667 442.791870,83.566948 
	C436.315155,76.471611 430.547058,69.915955 424.473938,63.656288 
	C422.838989,61.971107 420.277039,61.185291 417.080139,59.391628 
	C417.080139,72.122589 417.080139,83.017715 417.080139,93.985306 
	C418.329437,93.985306 419.560364,93.985306 421.196716,93.985306 
	C421.196716,86.389511 421.196716,79.041489 421.196716,70.950813 
	C422.765594,72.621094 423.763000,73.682991 425.231720,75.274452 
M543.790344,62.564953 
	C537.224304,61.660126 530.658203,60.755299 523.842773,59.816105 
	C523.842773,72.089394 523.842773,82.987152 523.842773,93.877174 
	C526.471069,93.877174 528.866150,93.877174 531.325439,93.877174 
	C531.325439,89.014481 531.325439,84.462395 531.325439,78.453529 
	C533.683472,82.562218 535.378357,85.499542 537.058105,88.445511 
	C540.803955,95.015327 540.800903,95.017067 548.733459,93.576607 
	C545.498169,88.409401 542.298340,83.298851 539.093567,78.180359 
	C547.052856,73.661575 548.338806,69.631554 543.790344,62.564953 
M668.998169,61.438339 
	C667.343933,61.153111 665.689697,60.867882 663.487549,60.488178 
	C663.487549,72.142662 663.487549,83.056992 663.487549,94.217590 
	C664.682739,94.140900 665.928345,94.060982 667.453735,93.963112 
	C667.453735,86.455978 667.453735,79.230682 667.453735,71.207451 
	C669.028198,72.701904 670.120544,73.615746 671.069458,74.660004 
	C676.216736,80.324577 681.225159,86.120544 686.521301,91.641045 
	C687.940002,93.119835 690.199341,93.792114 693.135925,95.426308 
	C693.135925,82.735054 693.135925,71.842201 693.135925,60.684399 
	C691.749084,60.802475 690.512207,60.907784 689.141968,61.024452 
	C689.141968,68.401711 689.141968,75.453735 689.141968,83.538445 
	C682.150452,75.871857 675.812134,68.921600 668.998169,61.438339 
M853.164429,65.795090 
	C853.164429,71.371323 853.164429,76.947563 853.164429,83.764778 
	C846.357849,76.277634 840.487061,69.579193 834.298950,63.187958 
	C832.817322,61.657665 830.279541,61.150063 827.358643,59.758041 
	C827.358643,72.223648 827.358643,83.000916 827.358643,94.001312 
	C828.428650,94.001312 829.672974,94.001312 831.299500,94.001312 
	C831.299500,86.396233 831.299500,79.026810 831.299500,70.555435 
	C838.105408,78.139740 844.095886,85.001122 850.336731,91.626678 
	C851.727478,93.103104 853.998840,93.750015 855.864746,94.778854 
	C856.344055,94.378830 856.823425,93.978813 857.302734,93.578789 
	C857.302734,83.274391 857.304626,72.969994 857.297058,62.665596 
	C857.296753,62.182556 857.212585,61.699585 857.143188,60.956905 
	C855.877930,60.956905 854.647705,60.956905 853.142090,60.956905 
	C853.142090,62.285343 853.142090,63.586643 853.164429,65.795090 
M736.587463,88.825142 
	C735.553345,79.583435 734.519226,70.341736 733.460938,60.884148 
	C732.013306,60.884148 729.589600,60.884148 727.213135,60.884148 
	C727.088440,61.420704 726.949158,61.741737 726.948730,62.062943 
	C726.939880,68.549461 726.912354,75.036255 726.959412,81.522476 
	C727.021301,90.052063 731.443420,94.515739 740.202881,94.979713 
	C750.124207,95.505234 755.416321,91.625069 756.149414,82.728325 
	C756.722229,75.777298 756.729675,68.779427 756.961243,61.801483 
	C756.970276,61.530338 756.697998,61.249855 756.416321,60.698971 
	C755.126404,60.779140 753.717407,60.866711 752.079590,60.968506 
	C752.079590,68.223221 752.448608,75.211739 751.989136,82.145363 
	C751.370667,91.478821 745.155029,94.377274 736.587463,88.825142 
M382.064453,60.733929 
	C382.069977,69.567856 381.869446,78.410828 382.256348,87.228020 
	C382.333008,88.974777 384.339508,91.114906 386.017395,92.225777 
	C391.556335,95.892929 397.661530,95.951797 403.693695,93.579468 
	C409.364868,91.349129 410.537628,86.206253 410.833191,80.897957 
	C411.184814,74.581917 411.200836,68.247017 411.337311,61.919731 
	C411.343475,61.634014 411.102966,61.342972 410.851532,60.765499 
	C409.573456,60.823540 408.186005,60.886543 407.222992,60.930275 
	C406.811920,69.132561 406.877991,76.976318 405.888000,84.684456 
	C405.088226,90.911804 399.734100,93.332382 393.910553,91.002304 
	C390.041321,89.454178 389.115814,86.039162 389.020782,82.475082 
	C388.830566,75.344078 388.964294,68.204437 388.964294,60.657791 
	C386.856903,60.657791 384.892517,60.657791 382.064453,60.733929 
M556.403015,85.830093 
	C555.321411,88.476494 554.239868,91.122902 553.150208,93.789116 
	C559.118042,95.660400 558.721130,90.886330 559.423523,88.223518 
	C560.474792,84.238365 563.022949,84.068161 566.197327,84.267410 
	C569.190857,84.455299 572.331848,83.387520 573.699341,87.862495 
	C575.801697,94.742210 576.113281,94.646996 583.722168,93.874420 
	C579.628784,83.403938 575.580627,72.922745 571.373840,62.505615 
	C570.998657,61.576458 569.417236,60.346371 568.707397,60.521072 
	C567.581238,60.798241 566.286804,61.959003 565.813354,63.066532 
	C562.685730,70.381569 559.758545,77.782288 556.403015,85.830093 
M800.704407,73.059486 
	C797.842041,79.929138 794.979675,86.798790 792.099792,93.710411 
	C797.993958,95.952499 797.686340,90.926498 798.430603,88.136650 
	C799.505981,84.105507 802.137817,84.117622 805.260376,84.265640 
	C808.292664,84.409378 811.363647,83.515915 812.699036,87.953979 
	C814.780090,94.869804 815.095642,94.774849 822.653931,93.803596 
	C818.636047,83.492737 814.667480,73.152794 810.515869,62.886902 
	C810.084106,61.819214 808.523315,60.491982 807.563538,60.550491 
	C806.554932,60.611969 805.291748,62.027267 804.749939,63.146336 
	C803.308716,66.123299 802.195862,69.259239 800.704407,73.059486 
M488.523163,90.027039 
	C488.025848,91.238579 487.528503,92.450111 487.013367,93.704987 
	C491.156555,94.244225 491.440796,94.329666 493.315094,88.094337 
	C494.501770,84.146614 497.049072,84.110153 500.163757,84.267006 
	C503.192413,84.419518 506.247650,83.505142 507.566040,87.998611 
	C509.594391,94.911774 509.944885,94.808937 517.533325,93.777397 
	C513.640198,83.780502 509.813568,73.748627 505.768433,63.805626 
	C505.210205,62.433502 503.569550,61.501743 502.429993,60.366135 
	C501.330994,61.572575 499.806335,62.597813 499.202942,64.015213 
	C495.634186,72.398430 492.279327,80.872711 488.523163,90.027039 
M301.006592,84.592751 
	C302.422729,87.712585 303.838837,90.832413 305.251709,93.945114 
	C307.784546,93.945114 310.350403,93.945114 312.971680,93.945114 
	C308.854706,83.328491 304.890137,72.980408 300.774292,62.692856 
	C300.383240,61.715454 299.082916,60.564133 298.135834,60.499268 
	C297.202667,60.435360 295.658356,61.431461 295.279572,62.337620 
	C290.940033,72.718468 286.771973,83.170982 282.557648,93.605698 
	C286.229889,95.383163 287.563324,93.436150 288.041626,90.397911 
	C288.833862,85.365578 291.610352,83.323929 296.644775,84.258011 
	C297.773499,84.467438 298.964844,84.339378 301.006592,84.592751 
M889.302734,61.156719 
	C888.178711,60.850712 887.071960,60.395336 885.927795,60.262653 
	C877.805054,59.320698 870.152649,60.021515 864.995300,67.487465 
	C860.489685,74.009964 860.973083,83.936165 865.824341,89.399132 
	C870.632874,94.814003 882.174744,97.125053 888.521790,93.637131 
	C889.837097,92.914314 890.444702,90.903625 891.378479,89.486481 
	C882.802063,93.217308 877.391174,92.964920 873.345032,88.173775 
	C868.867859,82.872253 868.872620,72.017746 873.719482,66.829781 
	C875.316528,65.120338 877.898254,63.223732 879.958679,63.301216 
	C883.476868,63.433525 886.939026,65.057053 891.048950,66.232811 
	C890.764832,64.889091 890.411255,63.217045 889.302734,61.156719 
M59.390007,59.984234 
	C53.360096,60.514370 49.483154,63.368793 48.233910,68.197975 
	C47.101315,72.576225 49.031223,77.451378 52.989632,79.868256 
	C56.877941,82.242310 60.889847,82.362549 64.736046,79.836365 
	C68.372955,77.447647 70.165634,73.921127 69.545586,69.599411 
	C68.780098,64.263901 65.647072,60.936977 59.390007,59.984234 
M711.417542,62.987492 
	C713.616150,64.050690 715.814758,65.113884 718.404297,66.366127 
	C718.719666,65.222565 719.157166,63.636330 719.615234,61.975250 
	C718.048645,61.281128 717.035706,60.684643 715.941589,60.371861 
	C709.575684,58.551994 703.159607,61.228207 701.247375,66.436409 
	C699.122498,72.223740 701.265076,76.628311 707.867249,80.130394 
	C709.622803,81.061630 711.778809,81.721718 712.936584,83.161285 
	C714.113831,84.624931 715.068604,87.092468 714.653687,88.753975 
	C714.313660,90.115494 711.614502,92.025497 710.320435,91.782150 
	C707.321716,91.218254 704.540527,89.497780 701.454651,88.151764 
	C701.227112,89.300529 700.855652,91.176514 700.274292,94.111931 
	C705.238586,94.111931 709.649536,94.685127 713.830933,93.951088 
	C718.031006,93.213776 720.554260,89.990547 721.162231,85.526123 
	C721.776123,81.018082 719.976685,77.754738 716.194214,75.506241 
	C714.058594,74.236778 711.606079,73.412285 709.689392,71.891884 
	C708.264282,70.761391 706.438538,68.663307 706.663757,67.307129 
	C706.930420,65.701141 709.208191,64.429085 711.417542,62.987492 
M374.590210,78.056320 
	C371.103485,75.838165 367.391174,73.891655 364.237427,71.272560 
	C362.915222,70.174492 361.799835,67.240807 362.368042,65.888687 
	C362.964386,64.469658 365.787170,63.066406 367.461151,63.250938 
	C369.595215,63.486191 371.552948,65.321274 373.732208,66.548721 
	C374.106476,65.121773 374.503296,63.608879 374.932526,61.972427 
	C373.383575,61.295788 372.220795,60.608639 370.964081,60.269154 
	C364.731415,58.585461 358.795624,61.139313 356.689423,66.318069 
	C354.369263,72.022926 356.472473,76.563591 363.026947,80.058502 
	C364.784607,80.995682 366.940186,81.634254 368.130432,83.062271 
	C369.326935,84.497795 370.448273,87.048103 369.943542,88.553772 
	C369.437927,90.062088 366.666992,92.029106 365.269592,91.766869 
	C362.358154,91.220490 359.697937,89.335518 356.904144,87.985924 
	C356.645660,89.167137 356.203522,91.187569 355.786652,93.092613 
	C363.329193,96.182053 370.257843,95.417358 373.952057,91.074585 
	C377.166382,87.295952 377.813385,83.069000 374.590210,78.056320 
M906.125122,69.618835 
	C906.252136,67.861900 906.379150,66.104973 906.525208,64.084320 
	C910.330139,64.312378 913.596741,64.508171 917.051147,64.715225 
	C917.051147,63.190880 917.051147,61.981041 917.051147,60.809341 
	C910.798645,60.809341 904.869202,60.809341 898.812012,60.809341 
	C898.812012,71.973343 898.812012,82.885689 898.812012,94.248573 
	C904.312073,94.248573 909.615417,94.404167 914.893616,94.109901 
	C915.882812,94.054756 916.771667,92.200485 918.336243,90.487228 
	C913.258484,90.487228 909.859741,90.487228 906.286743,90.487228 
	C906.286743,86.355736 906.286743,82.572487 906.286743,78.560928 
	C909.901794,78.560928 913.315369,78.560928 917.069946,78.560928 
	C916.938904,77.112312 916.831299,75.922966 916.717529,74.666153 
	C913.028137,74.666153 909.749390,74.666153 906.120789,74.666153 
	C906.120789,73.121048 906.120789,71.824799 906.125122,69.618835 
M275.393677,67.740524 
	C274.130524,70.075531 272.867340,72.410538 271.201599,75.489746 
	C269.462524,71.953911 268.140869,69.300598 266.848724,66.632965 
	C263.554535,59.831970 263.559814,59.829414 255.567047,61.374432 
	C260.602386,71.793915 269.063507,81.152496 264.791046,93.977554 
	C268.142303,93.977554 270.578613,93.977554 272.407166,93.977554 
	C273.142151,87.995476 273.043701,82.080368 274.754547,76.745483 
	C276.494537,71.319794 280.017303,66.465813 282.852173,61.188740 
	C276.992706,59.268429 277.557404,64.564743 275.393677,67.740524 
M752.507812,122.718010 
	C747.975464,122.741653 743.443115,122.765297 738.910767,122.788933 
	C738.956177,123.274185 739.001587,123.759430 739.046997,124.244675 
	C744.180176,126.078049 914.928589,125.545761 918.807617,122.717987 
	C862.822815,122.717987 808.163574,122.717987 752.507812,122.718010 
M338.499939,125.197426 
	C343.666382,125.197426 348.833130,125.233063 353.999176,125.187225 
	C359.005035,125.142799 364.010101,125.014618 369.015533,124.923218 
	C368.967743,124.475586 368.919983,124.027954 368.872192,123.580322 
	C362.699615,121.671967 192.656891,122.409286 189.299469,125.197433 
	C239.373016,125.197433 288.436462,125.197433 338.499939,125.197426 
M148.075394,80.500214 
	C148.075439,99.123642 148.063339,117.747086 148.086288,136.370483 
	C148.090607,139.883041 148.154999,139.882965 151.749176,139.675644 
	C151.749176,113.139687 151.749176,86.600517 151.749176,60.061344 
	C151.281189,59.830078 150.813202,59.598808 150.345215,59.367538 
	C149.588821,60.591255 148.234482,61.788712 148.179382,63.043228 
	C147.938843,68.519936 148.075592,74.013206 148.075394,80.500214 
M326.097961,64.550652 
	C326.034637,63.290493 325.971313,62.030334 325.916534,60.940529 
	C323.223846,60.940529 320.944855,60.940529 318.489349,60.940529 
	C318.489349,72.027695 318.489349,82.899170 318.489349,94.257126 
	C323.970612,94.257126 329.253052,94.410912 334.511902,94.127335 
	C335.563263,94.070641 336.524689,92.345741 337.527557,91.390045 
	C337.203583,91.055267 336.879608,90.720490 336.555634,90.385719 
	C333.170166,90.538330 329.784668,90.690941 326.067413,90.858505 
	C326.067413,82.082275 326.067413,73.810081 326.097961,64.550652 
M654.788879,65.726730 
	C654.788879,64.133324 654.788879,62.539913 654.788879,60.894203 
	C651.975891,60.894203 649.555420,60.894203 647.066528,60.894203 
	C647.066528,72.029663 647.066528,82.943314 647.066528,93.878395 
	C649.744080,93.878395 652.269348,93.878395 654.745361,93.878395 
	C654.745361,84.566490 654.745361,75.618881 654.788879,65.726730 
M526.338318,110.880348 
	C526.345093,116.850410 526.275574,122.822403 526.427307,128.788788 
	C526.455566,129.899414 527.373230,130.987411 527.880432,132.085846 
	C528.411011,131.875427 528.941589,131.665009 529.472168,131.454605 
	C529.472168,128.066193 529.472168,124.677780 529.472168,120.761200 
	C532.278381,120.761200 534.759277,120.761200 537.240112,120.761200 
	C537.251831,120.356758 537.263550,119.952324 537.275269,119.547882 
	C534.684204,119.397873 532.093201,119.247864 529.493408,119.097343 
	C529.493408,116.444199 529.493408,114.207588 529.493408,111.561012 
	C531.213318,111.561012 532.655457,111.561012 534.097595,111.561012 
	C535.367249,111.561012 536.636963,111.561012 537.906616,111.561012 
	C537.900818,111.082848 537.895081,110.604675 537.889282,110.126511 
	C534.222961,110.126511 530.556580,110.126511 526.338318,110.880348 
M426.631592,131.904053 
	C427.011841,127.740555 428.602936,123.222168 427.509247,119.490669 
	C425.502686,112.644539 419.302338,119.091881 415.521027,116.573448 
	C414.147156,127.439651 414.691467,131.075668 417.987610,131.514923 
	C417.987610,128.519226 417.568329,125.477417 418.146423,122.638733 
	C418.487823,120.962189 420.407928,119.607140 421.618073,118.107498 
	C422.832153,119.537064 424.732300,120.806641 425.111084,122.431000 
	C425.804443,125.404175 425.598938,128.586960 426.631592,131.904053 
M393.034027,127.554321 
	C394.336823,123.049232 391.922943,120.851372 388.164734,119.152000 
	C386.479492,118.389977 384.369415,117.077477 383.889648,115.560211 
	C383.413696,114.055008 384.744690,111.978455 385.283203,110.152489 
	C383.254608,111.286461 381.486694,112.971725 381.029877,114.958443 
	C380.205170,118.545250 382.959930,120.180634 385.799988,121.559143 
	C391.926758,124.532913 392.343201,126.234833 388.911102,131.798157 
	C390.212372,130.605499 391.513641,129.412842 393.034027,127.554321 
M651.333008,130.745331 
	C646.978333,128.708694 644.953064,125.315323 645.022827,120.483253 
	C645.092896,115.627350 647.623169,112.458099 653.121094,109.897011 
	C644.801575,110.897583 641.561523,114.856064 641.907288,121.855469 
	C642.203613,127.854225 645.555725,131.256897 651.333008,130.745331 
M511.629669,119.269974 
	C512.035461,123.515839 512.441223,127.761711 512.846985,132.007584 
	C513.584229,131.932510 514.321533,131.857452 515.058777,131.782379 
	C515.058777,128.886688 515.053772,125.990974 515.059814,123.095284 
	C515.073730,116.432114 512.201782,114.687248 506.267548,117.771492 
	C507.836639,118.080307 509.405762,118.389122 511.629669,119.269974 
M397.151733,118.310326 
	C397.135254,120.948700 397.018860,123.591042 397.123688,126.224586 
	C397.322815,131.226166 399.569977,132.691254 406.289612,131.042480 
	C399.019348,130.484482 399.804962,126.097321 399.924469,122.056946 
	C399.963440,120.738632 400.222504,119.354446 399.886566,118.136787 
	C399.769501,117.712570 398.163635,117.699120 397.151733,118.310326 
M590.441101,118.099380 
	C591.671509,119.321640 593.600037,120.363533 593.973083,121.807312 
	C594.572266,124.126389 594.001526,126.723518 594.215332,129.177902 
	C594.305481,130.212830 595.133606,131.183502 595.626221,132.183380 
	C596.078186,132.049667 596.530090,131.915939 596.982056,131.782211 
	C596.982056,128.028275 597.462891,124.182251 596.769287,120.561165 
	C596.446289,118.874725 593.933594,117.496849 592.193726,116.298172 
	C591.892029,116.090324 590.491882,117.477028 590.441101,118.099380 
M669.107910,117.078690 
	C668.645935,117.030098 668.183899,116.981506 667.721924,116.932915 
	C667.808228,121.875153 667.893250,126.817429 668.040955,131.757828 
	C668.041382,131.772369 668.954407,131.759628 670.171875,131.759628 
	C669.915344,127.009300 669.660400,122.287331 669.107910,117.078690 
M724.728821,117.460632 
	C723.312134,117.295326 721.895386,117.130013 721.598694,117.095390 
	C722.623535,119.217262 724.337280,121.285423 724.481873,123.458023 
	C724.644714,125.904297 723.393311,128.444687 722.776367,130.868301 
	C728.119934,129.481232 729.222595,124.225792 724.728821,117.460632 
M586.887817,124.661560 
	C587.197815,122.598801 587.507874,120.536041 587.880310,118.058228 
	C587.026367,117.636147 585.851196,117.055328 584.511047,116.392952 
	C583.138245,127.481346 583.685547,131.115707 586.888062,131.474380 
	C586.888062,129.493210 586.888062,127.530960 586.887817,124.661560 
M541.991577,122.670242 
	C541.991577,125.733429 541.991577,128.796616 541.991577,131.859802 
	C542.505737,131.906219 543.019958,131.952637 543.534119,131.999054 
	C546.269409,127.948006 544.009338,123.048462 544.757385,118.659744 
	C544.865906,118.022987 543.663452,117.162758 543.067627,116.405937 
	C542.706726,116.579285 542.345886,116.752625 541.984985,116.925964 
	C541.984985,118.536613 541.984985,120.147255 541.991577,122.670242 
M603.031921,118.420326 
	C599.125671,124.360817 600.194092,129.463684 604.776611,130.560013 
	C604.776611,127.029541 604.818176,123.326004 604.730835,119.625511 
	C604.718079,119.083504 604.091736,118.555992 603.031921,118.420326 
M690.858154,129.103226 
	C693.433350,122.675255 692.137756,118.740814 688.083923,118.390259 
	C688.083923,122.489517 688.083923,126.655540 688.083923,131.008514 
	C688.552856,130.743988 689.451965,130.236786 690.858154,129.103226 
M408.191864,131.605377 
	C408.669830,131.599136 409.566650,131.598038 409.566803,131.585922 
	C409.626862,126.690155 409.625793,121.793640 409.625793,116.234840 
	C408.521515,117.092346 407.897400,117.330330 407.853394,117.648582 
	C407.297028,121.669533 406.786499,125.698441 406.399170,129.738235 
	C406.366791,130.075760 407.308624,130.506683 408.191864,131.605377 
M466.888489,124.447586 
	C466.888489,126.905975 466.888489,129.364365 466.888489,131.822754 
	C467.411774,131.790573 467.935028,131.758392 468.458313,131.726196 
	C468.458313,126.795242 468.458313,121.864273 468.458313,116.933311 
	C467.934998,116.917625 467.411713,116.901932 466.888397,116.886246 
	C466.888397,119.087250 466.888397,121.288254 466.888489,124.447586 
M569.420532,132.206100 
	C570.219482,132.081085 571.018433,131.956055 571.817383,131.831024 
	C571.422058,131.026871 571.220154,129.870300 570.577148,129.517380 
	C569.931091,129.162796 568.845703,129.608536 567.952881,129.703537 
	C568.232849,130.448929 568.512817,131.194321 569.420532,132.206100 
M567.692688,126.575600 
	C567.980896,126.299492 568.269165,126.023376 568.557373,125.747253 
	C568.442993,125.628136 568.235535,125.399071 568.227661,125.405754 
	C567.923950,125.662834 567.638550,125.941483 567.692688,126.575600 
M571.237488,125.180016 
	C571.408813,125.122978 571.580078,125.065933 571.751404,125.008896 
	C571.579224,124.953712 571.406982,124.898537 571.237488,125.180016 
M682.595154,130.520645 
	C682.595154,130.520645 682.476257,130.594711 682.595154,130.520645 
M684.517395,132.407379 
	C684.517395,132.407379 684.588562,132.523605 684.517395,132.407379 
M720.593018,132.517532 
	C720.593018,132.517532 720.477539,132.587250 720.593018,132.517532 
z"/>
<path fill="#03549D" opacity="1.000000" stroke="none" 
	d="
M70.087006,128.082153 
	C66.738335,136.263611 60.574352,140.110748 51.806515,140.087280 
	C37.844849,140.049881 23.883009,140.077271 9.661386,140.077271 
	C9.661386,134.542130 9.661386,129.431564 9.661386,123.422913 
	C23.672337,123.422913 37.696224,123.422913 51.720108,123.422913 
	C51.855083,122.752930 51.990059,122.082954 52.125038,121.412971 
	C50.796860,120.918312 49.478168,120.028488 48.138885,119.996330 
	C41.810768,119.844391 35.476627,119.971794 29.145365,119.916321 
	C17.658451,119.815681 9.162266,111.802414 9.294343,101.261574 
	C9.425298,90.810287 17.702848,83.037529 28.950422,82.980659 
	C42.933525,82.909958 56.917259,82.963707 71.157738,82.963707 
	C71.336655,81.244644 71.493591,79.791153 71.638435,78.336456 
	C72.733841,67.335693 80.544815,60.063992 91.507935,59.934879 
	C97.466721,59.864700 103.427017,59.922363 109.631546,59.922363 
	C109.631546,65.962975 109.631546,71.562897 109.631546,77.928757 
	C104.253235,77.928757 98.830017,77.876122 93.408371,77.945885 
	C89.283661,77.998962 89.284554,78.068153 89.608528,82.958885 
	C96.179413,82.958885 102.787476,82.958885 109.653061,82.958885 
	C109.653061,88.584358 109.653061,93.814850 109.653061,99.537292 
	C102.875160,99.537292 96.276886,99.537292 89.159454,99.537292 
	C89.159454,113.254295 89.159454,126.491959 89.159454,139.894531 
	C83.062988,139.894531 77.496071,139.894531 71.546776,139.894531 
	C71.546776,136.143036 71.546776,132.674255 71.720001,128.297028 
	C71.777779,123.500404 71.662331,119.612259 71.546326,115.275665 
	C71.545776,109.888664 71.545776,104.950096 71.545776,99.610573 
	C58.115993,99.610573 45.329395,99.578049 32.543892,99.681114 
	C31.657003,99.688255 30.778246,100.703857 29.895706,101.250496 
	C30.847612,101.889313 31.781612,103.047066 32.754398,103.080620 
	C38.073448,103.264145 43.415524,103.415680 48.724468,103.122131 
	C59.209564,102.542381 66.719582,106.620842 70.855995,116.834480 
	C70.568512,120.867584 70.327759,124.474869 70.087006,128.082153 
z"/>
<path fill="#2D292A" opacity="1.000000" stroke="none" 
	d="
M592.450806,65.540344 
	C592.742859,63.820847 592.945984,62.506367 593.150330,61.184017 
	C596.097595,59.855259 597.619446,61.081017 598.850769,63.812851 
	C601.781006,70.313675 604.960754,76.702003 608.557129,84.217140 
	C612.129211,76.859802 615.361572,70.446167 618.352600,63.921940 
	C619.557617,61.293415 620.893433,59.691830 624.323975,61.222927 
	C625.618713,71.872093 626.938782,82.729713 628.298584,93.914284 
	C625.672119,93.914284 623.259644,93.914284 620.479431,93.914284 
	C619.871094,87.267578 619.257812,80.567680 618.644592,73.867790 
	C618.294617,73.757362 617.944641,73.646927 617.594727,73.536499 
	C614.122437,80.551247 610.650146,87.565994 606.476074,95.998383 
	C602.358215,87.661667 598.964539,80.791161 595.570862,73.920654 
	C595.197571,73.938126 594.824219,73.955597 594.450867,73.973068 
	C593.870483,80.439606 593.290100,86.906136 592.667664,93.841393 
	C591.439819,93.960747 590.082275,94.092720 588.366760,94.259491 
	C589.737549,84.544540 591.049683,75.244957 592.450806,65.540344 
z"/>
<path fill="#2D292A" opacity="1.000000" stroke="none" 
	d="
M461.104645,60.659615 
	C465.064178,60.702942 468.573242,60.556007 472.036224,60.888783 
	C481.354767,61.784229 485.919800,66.724915 486.067169,75.752464 
	C486.226746,85.527161 480.615326,93.179100 472.002808,93.990074 
	C466.247894,94.531967 460.400635,94.093025 454.359009,94.093025 
	C454.359009,83.068687 454.359009,72.145531 454.359009,60.688114 
	C456.417999,60.688114 458.525574,60.688114 461.104645,60.659615 
M472.451599,64.737030 
	C469.168701,64.113609 465.885803,63.490185 462.242310,62.798286 
	C462.242310,73.065491 462.242310,82.226120 462.242310,91.346901 
	C469.947418,92.212265 474.433167,90.230667 476.745483,85.121384 
	C479.827789,78.310760 478.316254,69.895164 472.451599,64.737030 
z"/>
<path fill="#2C2929" opacity="1.000000" stroke="none" 
	d="
M218.089569,77.992378 
	C218.942444,59.069771 239.060455,56.519810 248.849670,63.036217 
	C257.745087,68.957634 258.376648,83.268684 249.948685,90.433624 
	C243.458649,95.951057 235.889481,96.183182 228.279037,93.562309 
	C221.310913,91.162628 218.535614,85.458199 218.089569,77.992378 
M226.255692,79.267998 
	C226.487991,80.741089 226.636154,82.233444 226.968140,83.683723 
	C228.026489,88.307129 230.560562,91.511772 235.584366,91.969360 
	C240.510605,92.418053 244.563416,90.150513 245.671921,85.648575 
	C246.893570,80.687157 247.203796,75.216141 246.514786,70.157272 
	C245.935867,65.906677 242.458817,63.101723 237.648834,62.806995 
	C232.764160,62.507694 229.693619,65.104424 228.101486,69.255562 
	C226.998184,72.132240 226.807373,75.358887 226.255692,79.267998 
z"/>
<path fill="#2C2929" opacity="1.000000" stroke="none" 
	d="
M779.557129,79.433838 
	C782.641907,84.357147 785.520203,88.981987 788.468628,93.719620 
	C782.773438,95.329018 778.789185,94.181816 776.587036,88.380852 
	C775.480774,85.466644 773.518005,82.877602 771.256226,78.949539 
	C771.256226,84.772949 771.256226,89.380959 771.256226,94.099945 
	C768.364014,94.099945 766.052795,94.099945 763.431030,94.099945 
	C763.431030,83.180931 763.431030,72.271843 763.431030,60.730736 
	C768.323303,60.730736 773.399780,60.620365 778.468933,60.766201 
	C782.413818,60.879696 785.156677,62.962322 785.928589,66.882515 
	C786.696533,70.782684 785.550232,74.085762 781.984497,76.369690 
	C780.943176,77.036652 780.219666,78.199692 779.557129,79.433838 
M778.476318,67.967789 
	C777.897522,63.496143 774.783936,63.290749 771.281860,63.418812 
	C771.281860,68.040703 771.281860,72.370850 771.281860,76.840729 
	C777.005981,76.695480 778.773499,73.561172 778.476318,67.967789 
z"/>
<path fill="#292526" opacity="1.000000" stroke="none" 
	d="
M212.346039,72.929077 
	C210.333679,74.894897 208.526917,76.512856 206.207657,78.589760 
	C209.072174,83.235962 212.222488,88.345741 215.543518,93.732391 
	C209.962006,95.069870 206.016876,94.375702 203.866333,88.651329 
	C202.675415,85.481323 200.537384,82.667107 198.229248,78.654640 
	C198.229248,84.445534 198.229248,89.104294 198.229248,93.963898 
	C195.453903,93.963898 193.067673,93.963898 190.494797,93.963898 
	C190.494797,82.844193 190.494797,71.957016 190.494797,60.531361 
	C194.891815,60.531361 199.182114,60.364571 203.454926,60.566887 
	C211.755096,60.959900 214.197327,64.286797 212.346039,72.929077 
M205.811707,70.295059 
	C205.185120,64.020073 204.225388,63.193363 198.196106,63.868694 
	C198.196106,68.122856 198.196106,72.391243 198.196106,76.828407 
	C202.478195,76.947441 205.026123,75.222710 205.811707,70.295059 
z"/>
<path fill="#2F2B2C" opacity="1.000000" stroke="none" 
	d="
M424.996094,75.009666 
	C423.763000,73.682991 422.765594,72.621094 421.196716,70.950813 
	C421.196716,79.041489 421.196716,86.389511 421.196716,93.985306 
	C419.560364,93.985306 418.329437,93.985306 417.080139,93.985306 
	C417.080139,83.017715 417.080139,72.122589 417.080139,59.391628 
	C420.277039,61.185291 422.838989,61.971107 424.473938,63.656288 
	C430.547058,69.915955 436.315155,76.471611 442.791870,83.566948 
	C442.791870,75.536667 442.791870,68.470825 442.791870,61.049271 
	C444.193726,60.913055 445.383545,60.797443 446.594910,60.679741 
	C446.594910,71.882866 446.594910,82.775818 446.594910,95.276367 
	C443.806458,93.798622 441.657440,93.231087 440.342682,91.862244 
	C435.163361,86.469704 430.246185,80.825356 424.996094,75.009666 
z"/>
<path fill="#282425" opacity="1.000000" stroke="none" 
	d="
M544.067200,62.830845 
	C548.338806,69.631554 547.052856,73.661575 539.093567,78.180359 
	C542.298340,83.298851 545.498169,88.409401 548.733459,93.576607 
	C540.800903,95.017067 540.803955,95.015327 537.058105,88.445511 
	C535.378357,85.499542 533.683472,82.562218 531.325439,78.453529 
	C531.325439,84.462395 531.325439,89.014481 531.325439,93.877174 
	C528.866150,93.877174 526.471069,93.877174 523.842773,93.877174 
	C523.842773,82.987152 523.842773,72.089394 523.842773,59.816105 
	C530.658203,60.755299 537.224304,61.660126 544.067200,62.830845 
M536.864990,75.376038 
	C539.561401,72.436905 539.983521,68.859627 537.993286,65.761948 
	C536.955322,64.146446 534.096069,63.701118 531.362305,62.393909 
	C531.362305,67.983978 531.362305,72.253036 531.362305,77.129211 
	C533.159363,76.659599 534.692993,76.258842 536.864990,75.376038 
z"/>
<path fill="#2E2A2B" opacity="1.000000" stroke="none" 
	d="
M669.236023,61.704842 
	C675.812134,68.921600 682.150452,75.871857 689.141968,83.538445 
	C689.141968,75.453735 689.141968,68.401711 689.141968,61.024452 
	C690.512207,60.907784 691.749084,60.802475 693.135925,60.684399 
	C693.135925,71.842201 693.135925,82.735054 693.135925,95.426308 
	C690.199341,93.792114 687.940002,93.119835 686.521301,91.641045 
	C681.225159,86.120544 676.216736,80.324577 671.069458,74.660004 
	C670.120544,73.615746 669.028198,72.701904 667.453735,71.207451 
	C667.453735,79.230682 667.453735,86.455978 667.453735,93.963112 
	C665.928345,94.060982 664.682739,94.140900 663.487549,94.217590 
	C663.487549,83.056992 663.487549,72.142662 663.487549,60.488178 
	C665.689697,60.867882 667.343933,61.153111 669.236023,61.704842 
z"/>
<path fill="#2E2A2B" opacity="1.000000" stroke="none" 
	d="
M853.153259,65.341515 
	C853.142090,63.586643 853.142090,62.285343 853.142090,60.956905 
	C854.647705,60.956905 855.877930,60.956905 857.143188,60.956905 
	C857.212585,61.699585 857.296753,62.182556 857.297058,62.665596 
	C857.304626,72.969994 857.302734,83.274391 857.302734,93.578789 
	C856.823425,93.978813 856.344055,94.378830 855.864746,94.778854 
	C853.998840,93.750015 851.727478,93.103104 850.336731,91.626678 
	C844.095886,85.001122 838.105408,78.139740 831.299500,70.555435 
	C831.299500,79.026810 831.299500,86.396233 831.299500,94.001312 
	C829.672974,94.001312 828.428650,94.001312 827.358643,94.001312 
	C827.358643,83.000916 827.358643,72.223648 827.358643,59.758041 
	C830.279541,61.150063 832.817322,61.657665 834.298950,63.187958 
	C840.487061,69.579193 846.357849,76.277634 853.164429,83.764778 
	C853.164429,76.947563 853.164429,71.371323 853.153259,65.341515 
z"/>
<path fill="#2F2B2C" opacity="1.000000" stroke="none" 
	d="
M736.846924,89.163345 
	C745.155029,94.377274 751.370667,91.478821 751.989136,82.145363 
	C752.448608,75.211739 752.079590,68.223221 752.079590,60.968506 
	C753.717407,60.866711 755.126404,60.779140 756.416321,60.698971 
	C756.697998,61.249855 756.970276,61.530338 756.961243,61.801483 
	C756.729675,68.779427 756.722229,75.777298 756.149414,82.728325 
	C755.416321,91.625069 750.124207,95.505234 740.202881,94.979713 
	C731.443420,94.515739 727.021301,90.052063 726.959412,81.522476 
	C726.912354,75.036255 726.939880,68.549461 726.948730,62.062943 
	C726.949158,61.741737 727.088440,61.420704 727.213135,60.884148 
	C729.589600,60.884148 732.013306,60.884148 733.460938,60.884148 
	C734.519226,70.341736 735.553345,79.583435 736.846924,89.163345 
z"/>
<path fill="#2F2B2C" opacity="1.000000" stroke="none" 
	d="
M382.496277,60.695862 
	C384.892517,60.657791 386.856903,60.657791 388.964294,60.657791 
	C388.964294,68.204437 388.830566,75.344078 389.020782,82.475082 
	C389.115814,86.039162 390.041321,89.454178 393.910553,91.002304 
	C399.734100,93.332382 405.088226,90.911804 405.888000,84.684456 
	C406.877991,76.976318 406.811920,69.132561 407.222992,60.930275 
	C408.186005,60.886543 409.573456,60.823540 410.851532,60.765499 
	C411.102966,61.342972 411.343475,61.634014 411.337311,61.919731 
	C411.200836,68.247017 411.184814,74.581917 410.833191,80.897957 
	C410.537628,86.206253 409.364868,91.349129 403.693695,93.579468 
	C397.661530,95.951797 391.556335,95.892929 386.017395,92.225777 
	C384.339508,91.114906 382.333008,88.974777 382.256348,87.228020 
	C381.869446,78.410828 382.069977,69.567856 382.496277,60.695862 
z"/>
<path fill="#2C2929" opacity="1.000000" stroke="none" 
	d="
M556.584473,85.492592 
	C559.758545,77.782288 562.685730,70.381569 565.813354,63.066532 
	C566.286804,61.959003 567.581238,60.798241 568.707397,60.521072 
	C569.417236,60.346371 570.998657,61.576458 571.373840,62.505615 
	C575.580627,72.922745 579.628784,83.403938 583.722168,93.874420 
	C576.113281,94.646996 575.801697,94.742210 573.699341,87.862495 
	C572.331848,83.387520 569.190857,84.455299 566.197327,84.267410 
	C563.022949,84.068161 560.474792,84.238365 559.423523,88.223518 
	C558.721130,90.886330 559.118042,95.660400 553.150208,93.789116 
	C554.239868,91.122902 555.321411,88.476494 556.584473,85.492592 
M568.835754,74.678246 
	C568.225830,73.391388 567.615967,72.104538 566.636780,70.038483 
	C565.007446,74.188324 563.686584,77.552422 562.210876,81.310905 
	C565.481445,81.310905 568.108459,81.310905 571.147644,81.310905 
	C570.351624,79.071327 569.704712,77.251221 568.835754,74.678246 
z"/>
<path fill="#2C2929" opacity="1.000000" stroke="none" 
	d="
M800.828430,72.695724 
	C802.195862,69.259239 803.308716,66.123299 804.749939,63.146336 
	C805.291748,62.027267 806.554932,60.611969 807.563538,60.550491 
	C808.523315,60.491982 810.084106,61.819214 810.515869,62.886902 
	C814.667480,73.152794 818.636047,83.492737 822.653931,93.803596 
	C815.095642,94.774849 814.780090,94.869804 812.699036,87.953979 
	C811.363647,83.515915 808.292664,84.409378 805.260376,84.265640 
	C802.137817,84.117622 799.505981,84.105507 798.430603,88.136650 
	C797.686340,90.926498 797.993958,95.952499 792.099792,93.710411 
	C794.979675,86.798790 797.842041,79.929138 800.828430,72.695724 
M802.556885,81.603539 
	C804.955322,81.603539 807.353821,81.603539 810.340332,81.603539 
	C808.704163,77.374649 807.369568,73.925095 806.034912,70.475540 
	C805.695923,70.502968 805.356873,70.530403 805.017883,70.557831 
	C803.973877,74.138458 802.929810,77.719078 802.556885,81.603539 
z"/>
<path fill="#2C2929" opacity="1.000000" stroke="none" 
	d="
M488.687836,89.671692 
	C492.279327,80.872711 495.634186,72.398430 499.202942,64.015213 
	C499.806335,62.597813 501.330994,61.572575 502.429993,60.366127 
	C503.569550,61.501743 505.210205,62.433502 505.768433,63.805626 
	C509.813568,73.748627 513.640198,83.780502 517.533325,93.777397 
	C509.944885,94.808937 509.594391,94.911774 507.566040,87.998611 
	C506.247650,83.505142 503.192413,84.419518 500.163757,84.267006 
	C497.049072,84.110153 494.501770,84.146614 493.315094,88.094337 
	C491.440796,94.329666 491.156555,94.244225 487.013367,93.704987 
	C487.528503,92.450111 488.025848,91.238579 488.687836,89.671692 
M504.538940,79.890953 
	C503.335693,76.728188 502.132446,73.565422 500.587158,69.503624 
	C498.860626,74.063377 497.519043,77.606445 495.744568,82.292786 
	C499.605591,81.584435 502.177124,81.112656 504.538940,79.890953 
z"/>
<path fill="#2C2929" opacity="1.000000" stroke="none" 
	d="
M300.566986,84.479721 
	C298.964844,84.339378 297.773499,84.467438 296.644775,84.258011 
	C291.610352,83.323929 288.833862,85.365578 288.041626,90.397911 
	C287.563324,93.436150 286.229889,95.383163 282.557648,93.605698 
	C286.771973,83.170982 290.940033,72.718468 295.279572,62.337620 
	C295.658356,61.431461 297.202667,60.435360 298.135834,60.499268 
	C299.082916,60.564133 300.383240,61.715454 300.774292,62.692856 
	C304.890137,72.980408 308.854706,83.328491 312.971680,93.945114 
	C310.350403,93.945114 307.784546,93.945114 305.251709,93.945114 
	C303.838837,90.832413 302.422729,87.712585 300.566986,84.479721 
M293.066376,81.595367 
	C295.307037,81.595367 297.547729,81.595367 300.531036,81.595367 
	C299.042358,77.584831 297.803741,74.247993 296.565125,70.911156 
	C296.110657,70.905472 295.656158,70.899788 295.201691,70.894112 
	C294.232117,74.368843 293.262543,77.843582 293.066376,81.595367 
z"/>
<path fill="#2E2A2B" opacity="1.000000" stroke="none" 
	d="
M889.680176,61.350861 
	C890.411255,63.217045 890.764832,64.889091 891.048950,66.232811 
	C886.939026,65.057053 883.476868,63.433525 879.958679,63.301216 
	C877.898254,63.223732 875.316528,65.120338 873.719482,66.829781 
	C868.872620,72.017746 868.867859,82.872253 873.345032,88.173775 
	C877.391174,92.964920 882.802063,93.217308 891.378479,89.486481 
	C890.444702,90.903625 889.837097,92.914314 888.521790,93.637131 
	C882.174744,97.125053 870.632874,94.814003 865.824341,89.399132 
	C860.973083,83.936165 860.489685,74.009964 864.995300,67.487465 
	C870.152649,60.021515 877.805054,59.320698 885.927795,60.262653 
	C887.071960,60.395336 888.178711,60.850712 889.680176,61.350861 
z"/>
<path fill="#06569E" opacity="1.000000" stroke="none" 
	d="
M59.793503,60.003754 
	C65.647072,60.936977 68.780098,64.263901 69.545586,69.599411 
	C70.165634,73.921127 68.372955,77.447647 64.736046,79.836365 
	C60.889847,82.362549 56.877941,82.242310 52.989632,79.868256 
	C49.031223,77.451378 47.101315,72.576225 48.233910,68.197975 
	C49.483154,63.368793 53.360096,60.514370 59.793503,60.003754 
z"/>
<path fill="#2C2929" opacity="1.000000" stroke="none" 
	d="
M711.015869,62.999893 
	C709.208191,64.429085 706.930420,65.701141 706.663757,67.307129 
	C706.438538,68.663307 708.264282,70.761391 709.689392,71.891884 
	C711.606079,73.412285 714.058594,74.236778 716.194214,75.506241 
	C719.976685,77.754738 721.776123,81.018082 721.162231,85.526123 
	C720.554260,89.990547 718.031006,93.213776 713.830933,93.951088 
	C709.649536,94.685127 705.238586,94.111931 700.274292,94.111931 
	C700.855652,91.176514 701.227112,89.300529 701.454651,88.151764 
	C704.540527,89.497780 707.321716,91.218254 710.320435,91.782150 
	C711.614502,92.025497 714.313660,90.115494 714.653687,88.753975 
	C715.068604,87.092468 714.113831,84.624931 712.936584,83.161285 
	C711.778809,81.721718 709.622803,81.061630 707.867249,80.130394 
	C701.265076,76.628311 699.122498,72.223740 701.247375,66.436409 
	C703.159607,61.228207 709.575684,58.551994 715.941589,60.371861 
	C717.035706,60.684643 718.048645,61.281128 719.615234,61.975250 
	C719.157166,63.636330 718.719666,65.222565 718.404297,66.366127 
	C715.814758,65.113884 713.616150,64.050690 711.015869,62.999893 
z"/>
<path fill="#2F2B2C" opacity="1.000000" stroke="none" 
	d="
M374.810791,78.356857 
	C377.813385,83.069000 377.166382,87.295952 373.952057,91.074585 
	C370.257843,95.417358 363.329193,96.182053 355.786652,93.092613 
	C356.203522,91.187569 356.645660,89.167137 356.904144,87.985924 
	C359.697937,89.335518 362.358154,91.220490 365.269592,91.766869 
	C366.666992,92.029106 369.437927,90.062088 369.943542,88.553772 
	C370.448273,87.048103 369.326935,84.497795 368.130432,83.062271 
	C366.940186,81.634254 364.784607,80.995682 363.026947,80.058502 
	C356.472473,76.563591 354.369263,72.022926 356.689423,66.318069 
	C358.795624,61.139313 364.731415,58.585461 370.964081,60.269154 
	C372.220795,60.608639 373.383575,61.295788 374.932526,61.972427 
	C374.503296,63.608879 374.106476,65.121773 373.732208,66.548721 
	C371.552948,65.321274 369.595215,63.486191 367.461151,63.250938 
	C365.787170,63.066406 362.964386,64.469658 362.368042,65.888687 
	C361.799835,67.240807 362.915222,70.174492 364.237427,71.272560 
	C367.391174,73.891655 371.103485,75.838165 374.810791,78.356857 
z"/>
<path fill="#262223" opacity="1.000000" stroke="none" 
	d="
M906.122925,70.073685 
	C906.120789,71.824799 906.120789,73.121048 906.120789,74.666153 
	C909.749390,74.666153 913.028137,74.666153 916.717529,74.666153 
	C916.831299,75.922966 916.938904,77.112312 917.069946,78.560928 
	C913.315369,78.560928 909.901794,78.560928 906.286743,78.560928 
	C906.286743,82.572487 906.286743,86.355736 906.286743,90.487228 
	C909.859741,90.487228 913.258484,90.487228 918.336243,90.487228 
	C916.771667,92.200485 915.882812,94.054756 914.893616,94.109901 
	C909.615417,94.404167 904.312073,94.248573 898.812012,94.248573 
	C898.812012,82.885689 898.812012,71.973343 898.812012,60.809341 
	C904.869202,60.809341 910.798645,60.809341 917.051147,60.809341 
	C917.051147,61.981041 917.051147,63.190880 917.051147,64.715225 
	C913.596741,64.508171 910.330139,64.312378 906.525208,64.084320 
	C906.379150,66.104973 906.252136,67.861900 906.122925,70.073685 
z"/>
<path fill="#2B2728" opacity="1.000000" stroke="none" 
	d="
M275.584839,67.415436 
	C277.557404,64.564743 276.992706,59.268429 282.852173,61.188740 
	C280.017303,66.465813 276.494537,71.319794 274.754547,76.745483 
	C273.043701,82.080368 273.142151,87.995476 272.407166,93.977554 
	C270.578613,93.977554 268.142303,93.977554 264.791046,93.977554 
	C269.063507,81.152496 260.602386,71.793915 255.567047,61.374432 
	C263.559814,59.829414 263.554535,59.831970 266.848724,66.632965 
	C268.140869,69.300598 269.462524,71.953911 271.201599,75.489746 
	C272.867340,72.410538 274.130524,70.075531 275.584839,67.415436 
z"/>
<path fill="#231F20" opacity="1.000000" stroke="none" 
	d="
M753.006042,122.718002 
	C808.163574,122.717987 862.822815,122.717987 918.807617,122.717987 
	C914.928589,125.545761 744.180176,126.078049 739.046997,124.244675 
	C739.001587,123.759430 738.956177,123.274185 738.910767,122.788933 
	C743.443115,122.765297 747.975464,122.741653 753.006042,122.718002 
z"/>
<path fill="#231F20" opacity="1.000000" stroke="none" 
	d="
M337.999908,125.197433 
	C288.436462,125.197433 239.373016,125.197433 189.299469,125.197433 
	C192.656891,122.409286 362.699615,121.671967 368.872192,123.580322 
	C368.919983,124.027954 368.967743,124.475586 369.015533,124.923218 
	C364.010101,125.014618 359.005035,125.142799 353.999176,125.187225 
	C348.833130,125.233063 343.666382,125.197426 337.999908,125.197433 
z"/>
<path fill="#2F2B2C" opacity="1.000000" stroke="none" 
	d="
M148.075394,80.000336 
	C148.075592,74.013206 147.938843,68.519936 148.179382,63.043228 
	C148.234482,61.788712 149.588821,60.591255 150.345215,59.367538 
	C150.813202,59.598808 151.281189,59.830078 151.749176,60.061344 
	C151.749176,86.600517 151.749176,113.139687 151.749176,139.675644 
	C148.154999,139.882965 148.090607,139.883041 148.086288,136.370483 
	C148.063339,117.747086 148.075439,99.123642 148.075394,80.000336 
z"/>
<path fill="#282425" opacity="1.000000" stroke="none" 
	d="
M326.082703,65.044266 
	C326.067413,73.810081 326.067413,82.082275 326.067413,90.858505 
	C329.784668,90.690941 333.170166,90.538330 336.555634,90.385719 
	C336.879608,90.720490 337.203583,91.055267 337.527557,91.390045 
	C336.524689,92.345741 335.563263,94.070641 334.511902,94.127335 
	C329.253052,94.410912 323.970612,94.257126 318.489349,94.257126 
	C318.489349,82.899170 318.489349,72.027695 318.489349,60.940529 
	C320.944855,60.940529 323.223846,60.940529 325.916534,60.940529 
	C325.971313,62.030334 326.034637,63.290493 326.082703,65.044266 
z"/>
<path fill="#312D2E" opacity="1.000000" stroke="none" 
	d="
M654.767090,66.198997 
	C654.745361,75.618881 654.745361,84.566490 654.745361,93.878395 
	C652.269348,93.878395 649.744080,93.878395 647.066528,93.878395 
	C647.066528,82.943314 647.066528,72.029663 647.066528,60.894203 
	C649.555420,60.894203 651.975891,60.894203 654.788879,60.894203 
	C654.788879,62.539913 654.788879,64.133324 654.767090,66.198997 
z"/>
<path fill="#3C393A" opacity="1.000000" stroke="none" 
	d="
M526.614258,110.503433 
	C530.556580,110.126511 534.222961,110.126511 537.889282,110.126511 
	C537.895081,110.604675 537.900818,111.082848 537.906616,111.561012 
	C536.636963,111.561012 535.367249,111.561012 534.097595,111.561012 
	C532.655457,111.561012 531.213318,111.561012 529.493408,111.561012 
	C529.493408,114.207588 529.493408,116.444199 529.493408,119.097343 
	C532.093201,119.247864 534.684204,119.397873 537.275269,119.547882 
	C537.263550,119.952324 537.251831,120.356758 537.240112,120.761200 
	C534.759277,120.761200 532.278381,120.761200 529.472168,120.761200 
	C529.472168,124.677780 529.472168,128.066193 529.472168,131.454605 
	C528.941589,131.665009 528.411011,131.875427 527.880432,132.085846 
	C527.373230,130.987411 526.455566,129.899414 526.427307,128.788788 
	C526.275574,122.822403 526.345093,116.850410 526.614258,110.503433 
z"/>
<path fill="#4B4849" opacity="1.000000" stroke="none" 
	d="
M426.199921,131.793182 
	C425.598938,128.586960 425.804443,125.404175 425.111084,122.431000 
	C424.732300,120.806641 422.832153,119.537064 421.618103,118.107506 
	C420.407928,119.607140 418.487823,120.962189 418.146423,122.638733 
	C417.568329,125.477417 417.987610,128.519226 417.987610,131.514923 
	C414.691467,131.075668 414.147156,127.439651 415.521027,116.573448 
	C419.302338,119.091881 425.502686,112.644539 427.509247,119.490669 
	C428.602936,123.222168 427.011841,127.740555 426.199921,131.793182 
z"/>
<path fill="#383536" opacity="1.000000" stroke="none" 
	d="
M392.924469,127.887245 
	C391.513641,129.412842 390.212372,130.605499 388.911102,131.798157 
	C392.343201,126.234833 391.926758,124.532913 385.799988,121.559143 
	C382.959930,120.180634 380.205170,118.545250 381.029877,114.958443 
	C381.486694,112.971725 383.254608,111.286461 385.283203,110.152489 
	C384.744690,111.978455 383.413696,114.055008 383.889648,115.560211 
	C384.369415,117.077477 386.479492,118.389977 388.164734,119.152000 
	C391.922943,120.851372 394.336823,123.049232 392.924469,127.887245 
z"/>
<path fill="#383536" opacity="1.000000" stroke="none" 
	d="
M651.327637,131.078888 
	C645.555725,131.256897 642.203613,127.854225 641.907288,121.855469 
	C641.561523,114.856064 644.801575,110.897583 653.121094,109.897011 
	C647.623169,112.458099 645.092896,115.627350 645.022827,120.483253 
	C644.953064,125.315323 646.978333,128.708694 651.327637,131.078888 
z"/>
<path fill="#464243" opacity="1.000000" stroke="none" 
	d="
M716.771912,130.556305 
	C716.458740,132.729721 716.243835,134.923767 715.792969,137.068237 
	C715.550293,138.222610 714.903320,139.291962 714.438721,140.399689 
	C714.013916,140.260742 713.589111,140.121811 713.164307,139.982864 
	C713.164307,132.295609 713.164307,124.608360 713.164307,116.593315 
	C714.818970,117.038261 716.221924,117.415535 716.785522,117.567085 
	C716.785522,121.494614 716.785522,125.358604 716.772949,129.715698 
	C716.760437,130.208801 716.771912,130.556305 716.771912,130.556305 
z"/>
<path fill="#312D2E" opacity="1.000000" stroke="none" 
	d="
M627.484131,117.303802 
	C628.714172,119.216888 629.944275,121.129974 631.764832,123.961395 
	C626.798279,123.961395 623.355408,123.961395 619.018372,123.961395 
	C619.993225,126.574623 620.743835,128.586823 621.757019,131.302933 
	C617.922485,130.635284 616.804810,128.113708 616.604980,124.875175 
	C616.308533,120.070000 618.303101,117.580162 622.307495,117.295662 
	C621.420837,118.821503 620.463623,120.468727 619.173523,122.688789 
	C622.494446,122.688789 624.920837,122.688789 627.869019,122.688789 
	C627.531616,121.378754 627.227051,120.196114 627.028564,118.415993 
	C627.251221,117.646942 627.367676,117.475372 627.484131,117.303802 
z"/>
<path fill="#4D4A4B" opacity="1.000000" stroke="none" 
	d="
M482.609039,130.234589 
	C483.392181,128.728912 484.175323,127.223251 484.924438,125.103897 
	C484.600128,124.434792 484.309906,124.379379 484.019684,124.323959 
	C484.815613,118.369301 484.815613,118.369301 479.382599,117.503593 
	C484.268768,115.033607 487.551910,116.690506 487.806854,121.889954 
	C487.966187,125.139343 487.836487,128.402908 487.836487,131.627518 
	C486.534027,131.492111 484.674255,131.298782 482.696014,130.868408 
	C482.577545,130.631378 482.609039,130.234589 482.609039,130.234589 
z"/>
<path fill="#4D4A4B" opacity="1.000000" stroke="none" 
	d="
M575.021118,124.332054 
	C575.033936,123.848305 574.864746,123.248299 575.087952,122.898994 
	C577.128479,119.705780 575.799866,118.242119 570.307129,117.677666 
	C575.084412,114.810860 578.651306,116.596710 578.872131,122.061386 
	C579.001770,125.269882 578.895691,128.487900 578.895691,131.864929 
	C577.758362,131.556717 576.257263,131.149933 574.764648,130.745453 
	C575.158386,129.144165 575.572998,127.457954 575.950134,125.128380 
	C575.615479,124.434021 575.318359,124.383041 575.021118,124.332054 
z"/>
<path fill="#464243" opacity="1.000000" stroke="none" 
	d="
M511.302246,118.983948 
	C509.405762,118.389122 507.836639,118.080307 506.268738,117.765503 
	C512.201782,114.687248 515.073730,116.432114 515.059814,123.095284 
	C515.053772,125.990974 515.058777,128.886688 515.058777,131.782379 
	C514.321533,131.857452 513.584229,131.932510 512.846985,132.007584 
	C512.441223,127.761711 512.035461,123.515839 511.302246,118.983948 
z"/>
<path fill="#4B4849" opacity="1.000000" stroke="none" 
	d="
M397.194702,117.904198 
	C398.163635,117.699120 399.769501,117.712570 399.886566,118.136787 
	C400.222504,119.354446 399.963440,120.738632 399.924469,122.056946 
	C399.804962,126.097321 399.019348,130.484482 406.289612,131.042480 
	C399.569977,132.691254 397.322815,131.226166 397.123688,126.224586 
	C397.018860,123.591042 397.135254,120.948700 397.194702,117.904198 
z"/>
<path fill="#4B4849" opacity="1.000000" stroke="none" 
	d="
M590.020081,118.113304 
	C590.491882,117.477028 591.892029,116.090324 592.193726,116.298172 
	C593.933594,117.496849 596.446289,118.874725 596.769287,120.561165 
	C597.462891,124.182251 596.982056,128.028275 596.982056,131.782211 
	C596.530090,131.915939 596.078186,132.049667 595.626221,132.183380 
	C595.133606,131.183502 594.305481,130.212830 594.215332,129.177902 
	C594.001526,126.723518 594.572266,124.126389 593.973083,121.807312 
	C593.600037,120.363533 591.671509,119.321640 590.020081,118.113304 
z"/>
<path fill="#383536" opacity="1.000000" stroke="none" 
	d="
M555.031372,117.216927 
	C560.503479,115.391098 563.006042,116.992264 563.120789,122.465485 
	C563.185730,125.559708 563.132507,128.656403 563.132507,131.751984 
	C562.647034,131.868484 562.161560,131.984985 561.676086,132.101486 
	C561.283997,131.184418 560.613403,130.285004 560.553894,129.346848 
	C560.397217,126.875473 560.659546,124.375305 560.467651,121.908958 
	C560.257812,119.213135 558.862305,117.605370 555.469360,117.913788 
	C555.074646,117.694527 555.031372,117.216927 555.031372,117.216927 
z"/>
<path fill="#312D2E" opacity="1.000000" stroke="none" 
	d="
M498.012909,117.035988 
	C502.796814,115.876640 505.045258,117.353195 505.171844,121.872360 
	C505.264679,125.186752 505.190002,128.505829 505.190002,131.822815 
	C504.386230,131.838821 503.582428,131.854813 502.778656,131.870819 
	C502.778656,129.272003 502.828461,126.671974 502.765106,124.074699 
	C502.697235,121.289886 503.040405,118.169739 498.419678,117.775940 
	C497.998047,117.506798 498.012909,117.035988 498.012909,117.035988 
z"/>
<path fill="#282425" opacity="1.000000" stroke="none" 
	d="
M442.759430,128.990814 
	C442.821411,125.899620 442.883392,122.808426 443.133972,119.219284 
	C443.392517,118.138786 443.462494,117.556229 443.532471,116.973679 
	C443.679016,113.955101 443.825592,110.936531 444.030640,106.713066 
	C445.334778,108.247437 446.159454,108.766212 446.162262,109.289360 
	C446.198456,116.100853 446.167908,122.914307 445.986389,129.722794 
	C445.969055,130.372086 444.824829,130.991364 443.956177,131.034058 
	C443.392242,129.959290 443.075836,129.475052 442.759430,128.990814 
z"/>
<path fill="#3C393A" opacity="1.000000" stroke="none" 
	d="
M497.615784,117.109161 
	C498.012909,117.035988 497.998047,117.506798 497.996338,117.742317 
	C497.169037,121.182457 496.296967,124.376129 495.538879,127.596649 
	C495.198486,129.042786 495.086060,130.542603 494.870209,132.018051 
	C494.383728,131.964142 493.897278,131.910233 493.410828,131.856323 
	C493.410828,126.950256 493.410828,122.044197 493.410828,116.902885 
	C494.572357,116.988129 495.895508,117.085236 497.615784,117.109161 
z"/>
<path fill="#4D4A4B" opacity="1.000000" stroke="none" 
	d="
M554.726685,117.316788 
	C555.031372,117.216927 555.074646,117.694527 555.055603,117.933578 
	C554.063232,122.703430 553.089905,127.234230 551.766724,133.393539 
	C548.956116,127.415520 551.190369,122.123146 549.791748,116.757690 
	C551.737244,117.034569 553.079651,117.225616 554.726685,117.316788 
z"/>
<path fill="#4D4A4B" opacity="1.000000" stroke="none" 
	d="
M705.087524,130.041077 
	C705.506409,125.678284 705.925293,121.315491 706.343201,116.963593 
	C706.712585,116.876831 707.017761,116.805168 707.322876,116.733505 
	C707.601379,121.678146 707.879822,126.622787 708.158325,131.567429 
	C707.318176,131.151108 706.477966,130.734787 705.346802,130.147430 
	C705.055847,129.976410 705.087524,130.041077 705.087524,130.041077 
z"/>
<path fill="#4B4849" opacity="1.000000" stroke="none" 
	d="
M669.256653,117.322021 
	C669.660400,122.287331 669.915344,127.009300 670.171875,131.759628 
	C668.954407,131.759628 668.041382,131.772369 668.040955,131.757828 
	C667.893250,126.817429 667.808228,121.875153 667.721924,116.932922 
	C668.183899,116.981506 668.645935,117.030098 669.256653,117.322021 
z"/>
<path fill="#312D2E" opacity="1.000000" stroke="none" 
	d="
M705.022461,129.962830 
	C702.848877,130.531219 700.492493,131.918442 698.641846,131.421616 
	C697.334412,131.070618 696.166443,128.242874 695.906189,126.384979 
	C695.463501,123.223755 695.784363,119.955559 695.784363,116.732315 
	C696.553223,116.743156 697.322144,116.754005 698.091003,116.764854 
	C698.091003,119.512817 698.102234,122.260834 698.088379,125.008728 
	C698.067139,129.222183 699.716309,131.331451 704.645508,129.976349 
	C705.087524,130.041077 705.055847,129.976410 705.022461,129.962830 
z"/>
<path fill="#383536" opacity="1.000000" stroke="none" 
	d="
M725.018433,117.726624 
	C729.222595,124.225792 728.119934,129.481232 722.776367,130.868301 
	C723.393311,128.444687 724.644714,125.904297 724.481873,123.458023 
	C724.337280,121.285423 722.623535,119.217262 721.598694,117.095390 
	C721.895386,117.130013 723.312134,117.295326 725.018433,117.726624 
z"/>
<path fill="#383536" opacity="1.000000" stroke="none" 
	d="
M441.110901,130.956619 
	C438.752319,130.825150 435.114655,131.564056 434.307037,130.377197 
	C432.729187,128.058456 432.035919,124.593498 432.323578,121.738838 
	C432.519012,119.799171 435.007416,118.090538 436.394379,116.372726 
	C436.005920,120.860260 435.339172,124.644180 435.589905,128.366302 
	C435.654205,129.320602 438.615051,130.079773 440.635315,130.946396 
	C441.025421,130.964188 441.110901,130.956619 441.110901,130.956619 
z"/>
<path fill="#4B4849" opacity="1.000000" stroke="none" 
	d="
M586.887939,125.115143 
	C586.888062,127.530960 586.888062,129.493210 586.888062,131.474380 
	C583.685547,131.115707 583.138245,127.481346 584.511047,116.392952 
	C585.851196,117.055328 587.026367,117.636147 587.880310,118.058228 
	C587.507874,120.536041 587.197815,122.598801 586.887939,125.115143 
z"/>
<path fill="#4B4849" opacity="1.000000" stroke="none" 
	d="
M541.988281,122.214066 
	C541.984985,120.147255 541.984985,118.536613 541.984985,116.925964 
	C542.345886,116.752625 542.706726,116.579285 543.067627,116.405937 
	C543.663452,117.162758 544.865906,118.022987 544.757385,118.659744 
	C544.009338,123.048462 546.269409,127.948006 543.534119,131.999054 
	C543.019958,131.952637 542.505737,131.906219 541.991577,131.859802 
	C541.991577,128.796616 541.991577,125.733429 541.988281,122.214066 
z"/>
<path fill="#3C393A" opacity="1.000000" stroke="none" 
	d="
M681.232300,118.265274 
	C680.720581,122.327095 680.208923,126.388916 679.728577,130.201828 
	C675.448914,128.693420 674.998901,122.545105 680.370605,117.663887 
	C680.978149,117.941063 681.105225,118.103172 681.232300,118.265274 
z"/>
<path fill="#2D292A" opacity="1.000000" stroke="none" 
	d="
M458.033447,129.931641 
	C458.318420,128.580093 458.603424,127.228554 458.859070,125.142654 
	C458.244812,123.949936 457.659882,123.491570 457.074982,123.033203 
	C459.623779,120.608185 459.331665,119.608627 455.682861,116.509880 
	C457.340271,117.185173 460.383179,117.785660 460.424377,118.548225 
	C460.647949,122.689148 460.130585,126.870064 459.278748,130.673004 
	C458.470612,130.183090 458.252045,130.057358 458.033447,129.931641 
z"/>
<path fill="#3C393A" opacity="1.000000" stroke="none" 
	d="
M603.390625,118.221046 
	C604.091736,118.555992 604.718079,119.083504 604.730835,119.625511 
	C604.818176,123.326004 604.776611,127.029541 604.776611,130.560013 
	C600.194092,129.463684 599.125671,124.360817 603.390625,118.221046 
z"/>
<path fill="#383536" opacity="1.000000" stroke="none" 
	d="
M690.604614,129.416397 
	C689.451965,130.236786 688.552856,130.743988 688.083923,131.008514 
	C688.083923,126.655540 688.083923,122.489517 688.083923,118.390259 
	C692.137756,118.740814 693.433350,122.675255 690.604614,129.416397 
z"/>
<path fill="#292526" opacity="1.000000" stroke="none" 
	d="
M407.994873,131.249786 
	C407.308624,130.506683 406.366791,130.075760 406.399170,129.738235 
	C406.786499,125.698441 407.297028,121.669533 407.853394,117.648582 
	C407.897400,117.330330 408.521515,117.092346 409.625793,116.234840 
	C409.625793,121.793640 409.626862,126.690155 409.566803,131.585922 
	C409.566650,131.598038 408.669830,131.599136 407.994873,131.249786 
z"/>
<path fill="#262223" opacity="1.000000" stroke="none" 
	d="
M466.888428,123.968422 
	C466.888397,121.288254 466.888397,119.087250 466.888397,116.886246 
	C467.411713,116.901932 467.934998,116.917625 468.458313,116.933311 
	C468.458313,121.864273 468.458313,126.795242 468.458313,131.726196 
	C467.935028,131.758392 467.411774,131.790573 466.888489,131.822754 
	C466.888489,129.364365 466.888489,126.905975 466.888428,123.968422 
z"/>
<path fill="#E3E3E3" opacity="1.000000" stroke="none" 
	d="
M453.001221,129.998779 
	C452.835876,130.010162 452.625153,130.093277 452.512207,130.021820 
	C451.332275,129.275284 450.168060,128.504013 448.999481,127.739594 
	C449.666809,126.924469 450.334106,126.109337 451.001404,125.294197 
	C451.686707,126.603844 452.372009,127.913498 453.028625,129.611572 
	C453.000000,130.000000 453.001221,129.998779 453.001221,129.998779 
z"/>
<path fill="#F5F5F5" opacity="1.000000" stroke="none" 
	d="
M482.204620,130.147369 
	C482.609039,130.234589 482.577545,130.631378 482.434814,130.769257 
	C479.164703,133.325104 477.995697,133.059769 476.853821,129.318832 
	C477.002045,128.998489 477.081177,128.922638 477.081177,128.922638 
	C478.654175,129.301804 480.227203,129.680969 482.204620,130.147369 
z"/>
<path fill="#F5F5F5" opacity="1.000000" stroke="none" 
	d="
M569.106689,132.072906 
	C568.512817,131.194321 568.232849,130.448929 567.952881,129.703537 
	C568.845703,129.608536 569.931091,129.162796 570.577148,129.517380 
	C571.220154,129.870300 571.422058,131.026871 571.817383,131.831024 
	C571.018433,131.956055 570.219482,132.081085 569.106689,132.072906 
z"/>
<path fill="#76A2CA" opacity="1.000000" stroke="none" 
	d="
M70.337128,128.061935 
	C70.327759,124.474869 70.568512,120.867584 70.930695,116.581345 
	C71.217049,115.842949 71.381966,115.783524 71.546890,115.724106 
	C71.662331,119.612259 71.777779,123.500404 71.721268,127.851318 
	C71.228622,128.223297 70.907936,128.132507 70.337128,128.061935 
z"/>
<path fill="#E3E3E3" opacity="1.000000" stroke="none" 
	d="
M457.676880,129.931000 
	C458.252045,130.057358 458.470612,130.183090 458.855286,130.648651 
	C457.022766,130.956284 454.815887,134.572128 453.020386,130.322876 
	C453.001221,129.998779 453.000000,130.000000 452.999390,130.000610 
	C454.439301,129.977600 455.879791,129.953995 457.676880,129.931000 
z"/>
<path fill="#F5F5F5" opacity="1.000000" stroke="none" 
	d="
M443.225220,116.910545 
	C443.462494,117.556229 443.392517,118.138786 443.031433,118.837776 
	C441.599121,118.340103 440.457977,117.725998 439.316803,117.111885 
	C439.453369,116.756821 439.589935,116.401756 439.726501,116.046684 
	C440.790314,116.313599 441.854156,116.580505 443.225220,116.910545 
z"/>
<path fill="#F5F5F5" opacity="1.000000" stroke="none" 
	d="
M476.962769,129.036743 
	C476.461090,128.144043 475.998627,127.213081 475.536194,126.282120 
	C475.994324,126.143982 476.452484,126.005836 476.910614,125.867699 
	C476.949341,126.668320 476.988037,127.468941 477.053955,128.596100 
	C477.081177,128.922638 477.002045,128.998489 476.962769,129.036743 
z"/>
<path fill="#E3E3E3" opacity="1.000000" stroke="none" 
	d="
M456.729858,123.016098 
	C457.659882,123.491570 458.244812,123.949936 458.803894,124.722519 
	C457.641632,124.772392 456.505249,124.508049 455.368866,124.243721 
	C455.707489,123.828812 456.046112,123.413895 456.729858,123.016098 
z"/>
<path fill="#F5F5F5" opacity="1.000000" stroke="none" 
	d="
M442.469940,129.037140 
	C443.075836,129.475052 443.392242,129.959290 443.673096,130.732788 
	C443.005157,131.020905 442.372742,131.019760 441.425629,130.987610 
	C441.110901,130.956619 441.025421,130.964188 441.035645,130.922516 
	C441.424042,130.281708 441.802246,129.682587 442.469940,129.037140 
z"/>
<path fill="#F5F5F5" opacity="1.000000" stroke="none" 
	d="
M567.521729,126.396439 
	C567.638550,125.941483 567.923950,125.662834 568.227661,125.405754 
	C568.235535,125.399071 568.442993,125.628136 568.557373,125.747253 
	C568.269165,126.023376 567.980896,126.299492 567.521729,126.396439 
z"/>
<path fill="#FAFAFA" opacity="1.000000" stroke="none" 
	d="
M716.910400,130.830017 
	C716.771912,130.556305 716.760437,130.208801 716.899414,130.104340 
	C717.538269,130.415985 718.038269,130.832108 718.538208,131.248230 
	C718.041809,131.200073 717.545349,131.151917 716.910400,130.830017 
z"/>
<path fill="#F5F5F5" opacity="1.000000" stroke="none" 
	d="
M571.236145,125.011688 
	C571.406982,124.898537 571.579224,124.953712 571.751404,125.008896 
	C571.580078,125.065933 571.408813,125.122978 571.236145,125.011688 
z"/>
<path fill="#3C393A" opacity="1.000000" stroke="none" 
	d="
M680.692505,117.513748 
	C681.284119,117.275658 682.034241,117.302788 682.784424,117.329918 
	C682.485168,117.607513 682.185974,117.885109 681.559570,118.213989 
	C681.105225,118.103172 680.978149,117.941063 680.692505,117.513748 
z"/>
<path fill="#312D2E" opacity="1.000000" stroke="none" 
	d="
M626.935303,118.057182 
	C626.170105,118.082344 625.604248,117.868843 624.031555,117.275375 
	C625.711975,117.098213 626.317993,117.034325 627.204102,117.137115 
	C627.367676,117.475372 627.251221,117.646942 626.935303,118.057182 
z"/>
<path fill="#F5F5F5" opacity="1.000000" stroke="none" 
	d="
M575.123779,124.481743 
	C575.318359,124.383041 575.615479,124.434021 575.880066,124.740646 
	C575.609924,124.926620 575.402893,124.805000 575.123779,124.481743 
z"/>
<path fill="#F5F5F5" opacity="1.000000" stroke="none" 
	d="
M484.118774,124.473480 
	C484.309906,124.379379 484.600128,124.434792 484.857574,124.742813 
	C484.591644,124.921539 484.389343,124.797394 484.118774,124.473480 
z"/>
<path fill="#FAFAFA" opacity="1.000000" stroke="none" 
	d="
M682.535706,130.557678 
	C682.476257,130.594711 682.595154,130.520645 682.535706,130.557678 
z"/>
<path fill="#FAFAFA" opacity="1.000000" stroke="none" 
	d="
M684.552979,132.465485 
	C684.588562,132.523605 684.517395,132.407379 684.552979,132.465485 
z"/>
<path fill="#FAFAFA" opacity="1.000000" stroke="none" 
	d="
M720.535278,132.552399 
	C720.477539,132.587250 720.593018,132.517532 720.535278,132.552399 
z"/>
<path fill="#FEFEFE" opacity="1.000000" stroke="none" 
	d="
M71.546333,115.275665 
	C71.381966,115.783524 71.217049,115.842949 70.977425,116.155518 
	C66.719582,106.620842 59.209564,102.542381 48.724468,103.122131 
	C43.415524,103.415680 38.073448,103.264145 32.754398,103.080620 
	C31.781612,103.047066 30.847612,101.889313 29.895706,101.250496 
	C30.778246,100.703857 31.657003,99.688255 32.543892,99.681114 
	C45.329395,99.578049 58.115993,99.610573 71.545776,99.610573 
	C71.545776,104.950096 71.545776,109.888664 71.546333,115.275665 
z"/>
<path fill="#FAFAFA" opacity="1.000000" stroke="none" 
	d="
M472.799194,64.910934 
	C478.316254,69.895164 479.827789,78.310760 476.745483,85.121384 
	C474.433167,90.230667 469.947418,92.212265 462.242310,91.346901 
	C462.242310,82.226120 462.242310,73.065491 462.242310,62.798286 
	C465.885803,63.490185 469.168701,64.113609 472.799194,64.910934 
z"/>
<path fill="#FAFAFA" opacity="1.000000" stroke="none" 
	d="
M226.232269,78.848579 
	C226.807373,75.358887 226.998184,72.132240 228.101486,69.255562 
	C229.693619,65.104424 232.764160,62.507694 237.648834,62.806995 
	C242.458817,63.101723 245.935867,65.906677 246.514786,70.157272 
	C247.203796,75.216141 246.893570,80.687157 245.671921,85.648575 
	C244.563416,90.150513 240.510605,92.418053 235.584366,91.969360 
	C230.560562,91.511772 228.026489,88.307129 226.968140,83.683723 
	C226.636154,82.233444 226.487991,80.741089 226.232269,78.848579 
z"/>
<path fill="#F5F5F5" opacity="1.000000" stroke="none" 
	d="
M778.538696,68.349884 
	C778.773499,73.561172 777.005981,76.695480 771.281860,76.840729 
	C771.281860,72.370850 771.281860,68.040703 771.281860,63.418812 
	C774.783936,63.290749 777.897522,63.496143 778.538696,68.349884 
z"/>
<path fill="#F5F5F5" opacity="1.000000" stroke="none" 
	d="
M205.775742,70.689255 
	C205.026123,75.222710 202.478195,76.947441 198.196106,76.828407 
	C198.196106,72.391243 198.196106,68.122856 198.196106,63.868694 
	C204.225388,63.193363 205.185120,64.020073 205.775742,70.689255 
z"/>
<path fill="#EDEDED" opacity="1.000000" stroke="none" 
	d="
M536.545776,75.617065 
	C534.692993,76.258842 533.159363,76.659599 531.362305,77.129211 
	C531.362305,72.253036 531.362305,67.983978 531.362305,62.393909 
	C534.096069,63.701118 536.955322,64.146446 537.993286,65.761948 
	C539.983521,68.859627 539.561401,72.436905 536.545776,75.617065 
z"/>
<path fill="#E3E3E3" opacity="1.000000" stroke="none" 
	d="
M568.946777,75.054680 
	C569.704712,77.251221 570.351624,79.071327 571.147644,81.310905 
	C568.108459,81.310905 565.481445,81.310905 562.210876,81.310905 
	C563.686584,77.552422 565.007446,74.188324 566.636780,70.038483 
	C567.615967,72.104538 568.225830,73.391388 568.946777,75.054680 
z"/>
<path fill="#E3E3E3" opacity="1.000000" stroke="none" 
	d="
M802.221313,81.451622 
	C802.929810,77.719078 803.973877,74.138458 805.017883,70.557831 
	C805.356873,70.530403 805.695923,70.502968 806.034912,70.475540 
	C807.369568,73.925095 808.704163,77.374649 810.340332,81.603539 
	C807.353821,81.603539 804.955322,81.603539 802.221313,81.451622 
z"/>
<path fill="#E3E3E3" opacity="1.000000" stroke="none" 
	d="
M504.643799,80.265915 
	C502.177124,81.112656 499.605591,81.584435 495.744568,82.292786 
	C497.519043,77.606445 498.860626,74.063377 500.587158,69.503624 
	C502.132446,73.565422 503.335693,76.728188 504.643799,80.265915 
z"/>
<path fill="#E3E3E3" opacity="1.000000" stroke="none" 
	d="
M292.679688,81.456848 
	C293.262543,77.843582 294.232117,74.368843 295.201691,70.894112 
	C295.656158,70.899788 296.110657,70.905472 296.565125,70.911156 
	C297.803741,74.247993 299.042358,77.584831 300.531036,81.595367 
	C297.547729,81.595367 295.307037,81.595367 292.679688,81.456848 
z"/>
</svg>
